<?xml version="1.0" standalone="no"?>
<!DOCTYPE svg PUBLIC "-//W3C//DTD SVG 20010904//EN"
 "http://www.w3.org/TR/2001/REC-SVG-20010904/DTD/svg10.dtd">
<svg version="1.0" xmlns="http://www.w3.org/2000/svg"
 width="512.000000pt" height="512.000000pt" viewBox="0 0 512.000000 512.000000"
 preserveAspectRatio="xMidYMid meet">
<metadata>
Created by potrace 1.11, written by Peter Selinger 2001-2013
</metadata>
<g transform="translate(0.000000,512.000000) scale(0.100000,-0.100000)"
fill="#000000" stroke="none">
<path d="M58 4436 c9 -10 150 -152 313 -315 l297 -296 646 0 646 0 227 -227
228 -228 -330 -330 c-181 -182 -333 -330 -336 -330 -3 0 -108 101 -232 225
l-225 225 0 143 c0 78 -1 158 -1 177 l-1 35 -312 0 -313 0 -1 -310 -1 -310
521 -521 c286 -287 530 -531 540 -543 19 -21 19 -21 -197 -237 -120 -119 -217
-219 -217 -222 0 -4 157 -165 350 -357 l350 -350 1535 0 c844 0 1535 1 1535 3
0 2 -140 144 -311 315 l-311 312 -1094 0 -1094 0 -260 260 -260 260 110 110
110 110 215 -215 215 -215 445 0 c245 0 445 1 445 2 0 1 -196 198 -437 438
l-436 437 111 110 110 111 436 -436 c240 -239 437 -432 437 -429 1 4 2 203 3
442 l2 435 -215 218 -216 217 105 105 c58 58 109 105 113 105 5 0 124 -116
265 -257 l257 -256 1 -611 c1 -336 2 -616 3 -621 1 -12 613 -15 621 -4 3 4 5
343 5 753 l0 746 -350 350 c-192 193 -353 350 -356 350 -4 0 -105 -99 -225
-219 l-219 -220 -543 542 -542 542 -1089 0 c-1069 0 -1089 0 -1073 -19z"/>
</g>
</svg>
